<?xml version="1.0" encoding="UTF-8" standalone="no"?>
<svg width="13px" height="10px" viewBox="0 0 13 10" version="1.1" xmlns="http://www.w3.org/2000/svg" xmlns:xlink="http://www.w3.org/1999/xlink">
    <!-- Generator: Sketch 3.8.3 (29802) - http://www.bohemiancoding.com/sketch -->
    <title>icn-tw</title>
    <desc>Created with Sketch.</desc>
    <defs></defs>
    <g id="Page-1" stroke="none" stroke-width="1" fill="none" fill-rule="evenodd">
        <g id="Landing-page" transform="translate(-740.000000, -3051.000000)" fill="#666666">
            <g id="Footer" transform="translate(-1.000000, 2932.000000)">
                <path d="M753.65625,120.1875 C753.30729,120.697919 752.885419,121.132811 752.390625,121.492188 C752.395833,121.565105 752.398438,121.674478 752.398438,121.820312 C752.398438,122.497399 752.29948,123.173174 752.101562,123.847656 C751.903645,124.522139 751.602867,125.169268 751.199219,125.789062 C750.795571,126.408857 750.315107,126.957029 749.757812,127.433594 C749.200518,127.910159 748.52865,128.290363 747.742188,128.574219 C746.955725,128.858074 746.114588,129 745.21875,129 C743.807285,129 742.515631,128.6224 741.34375,127.867188 C741.526043,127.888021 741.729166,127.898438 741.953125,127.898438 C743.125006,127.898438 744.169266,127.539066 745.085938,126.820312 C744.53906,126.809896 744.049481,126.641929 743.617188,126.316406 C743.184894,125.990884 742.888022,125.575523 742.726562,125.070312 C742.898438,125.096354 743.057291,125.109375 743.203125,125.109375 C743.427084,125.109375 743.648436,125.080729 743.867188,125.023438 C743.283851,124.903645 742.800783,124.613284 742.417969,124.152344 C742.035154,123.691404 741.84375,123.156253 741.84375,122.546875 L741.84375,122.515625 C742.197918,122.713543 742.578123,122.820312 742.984375,122.835938 C742.640623,122.60677 742.367189,122.307294 742.164062,121.9375 C741.960936,121.567706 741.859375,121.166669 741.859375,120.734375 C741.859375,120.276039 741.973957,119.851564 742.203125,119.460938 C742.833336,120.236983 743.600256,120.858071 744.503906,121.324219 C745.407557,121.790367 746.374995,122.049479 747.40625,122.101562 C747.364583,121.903645 747.34375,121.710938 747.34375,121.523438 C747.34375,120.825517 747.589841,120.230471 748.082031,119.738281 C748.574221,119.246091 749.169267,119 749.867188,119 C750.596358,119 751.210935,119.265622 751.710938,119.796875 C752.278649,119.687499 752.812497,119.484376 753.3125,119.1875 C753.119791,119.786461 752.750003,120.249998 752.203125,120.578125 C752.687502,120.526041 753.171873,120.395834 753.65625,120.1875 L753.65625,120.1875 Z" id="icn-tw"></path>
            </g>
        </g>
    </g>
</svg>