<?xml version="1.0" encoding="UTF-8" standalone="no"?>
<svg width="14px" height="10px" viewBox="0 0 14 10" version="1.1" xmlns="http://www.w3.org/2000/svg" xmlns:xlink="http://www.w3.org/1999/xlink">
    <!-- Generator: Sketch 3.8.3 (29802) - http://www.bohemiancoding.com/sketch -->
    <title>icn-yt</title>
    <desc>Created with Sketch.</desc>
    <defs></defs>
    <g id="Page-1" stroke="none" stroke-width="1" fill="none" fill-rule="evenodd">
        <g id="Landing-page" transform="translate(-741.000000, -3110.000000)" fill="#666666">
            <g id="Footer" transform="translate(-1.000000, 2932.000000)">
                <path d="M752,183 C752,182.807291 751.921876,182.666667 751.765625,182.578125 L747.765625,180.078125 C747.604166,179.973958 747.434897,179.96875 747.257812,180.0625 C747.085937,180.15625 747,180.302082 747,180.5 L747,185.5 C747,185.697918 747.085937,185.84375 747.257812,185.9375 C747.341146,185.979167 747.421875,186 747.5,186 C747.604167,186 747.692708,185.973959 747.765625,185.921875 L751.765625,183.421875 C751.921876,183.333333 752,183.192709 752,183 L752,183 Z M756,183 C756,183.500002 755.997396,183.890624 755.992188,184.171875 C755.986979,184.453126 755.964844,184.808592 755.925781,185.238281 C755.886719,185.667971 755.828125,186.052082 755.75,186.390625 C755.666666,186.770835 755.486981,187.091145 755.210938,187.351562 C754.934894,187.61198 754.611981,187.763021 754.242188,187.804688 C753.085932,187.934896 751.338553,188 749,188 C746.661447,188 744.914068,187.934896 743.757812,187.804688 C743.388019,187.763021 743.063803,187.61198 742.785156,187.351562 C742.506509,187.091145 742.325521,186.770835 742.242188,186.390625 C742.16927,186.052082 742.113281,185.667971 742.074219,185.238281 C742.035156,184.808592 742.013021,184.453126 742.007812,184.171875 C742.002604,183.890624 742,183.500002 742,183 C742,182.499998 742.002604,182.109376 742.007812,181.828125 C742.013021,181.546874 742.035156,181.191408 742.074219,180.761719 C742.113281,180.332029 742.171875,179.947918 742.25,179.609375 C742.333334,179.229165 742.513019,178.908855 742.789062,178.648438 C743.065106,178.38802 743.388019,178.236979 743.757812,178.195312 C744.914068,178.065104 746.661447,178 749,178 C751.338553,178 753.085932,178.065104 754.242188,178.195312 C754.611981,178.236979 754.936197,178.38802 755.214844,178.648438 C755.493491,178.908855 755.674479,179.229165 755.757812,179.609375 C755.83073,179.947918 755.886719,180.332029 755.925781,180.761719 C755.964844,181.191408 755.986979,181.546874 755.992188,181.828125 C755.997396,182.109376 756,182.499998 756,183 L756,183 Z" id="icn-yt"></path>
            </g>
        </g>
    </g>
</svg>