<?xml version="1.0" encoding="UTF-8" standalone="no"?>
<svg width="14px" height="9px" viewBox="0 0 14 9" version="1.1" xmlns="http://www.w3.org/2000/svg" xmlns:xlink="http://www.w3.org/1999/xlink">
  <path d="M13,7.5 C12.2083294,6.27082719 11.2161518,5.35156555 10.0234375,4.7421875 C10.3411474,5.28385687 10.5,5.86978852 10.5,6.5 C10.5,7.46354648 10.1575555,8.28775699 9.47265625,8.97265625 C8.78775699,9.65755551 7.96354648,10 7,10 C6.03645352,10 5.21224301,9.65755551 4.52734375,8.97265625 C3.84244449,8.28775699 3.5,7.46354648 3.5,6.5 C3.5,5.86978852 3.65885258,5.28385687 3.9765625,4.7421875 C2.7838482,5.35156555 1.79167063,6.27082719 1,7.5 C1.6927118,8.56771367 2.5611927,9.41796559 3.60546875,10.0507812 C4.6497448,10.6835969 5.78124391,11 7,11 C8.21875609,11 9.3502552,10.6835969 10.3945312,10.0507812 C11.4388073,9.41796559 12.3072882,8.56771367 13,7.5 L13,7.5 Z M7.375,4.5 C7.375,4.39583281 7.33854203,4.30729203 7.265625,4.234375 C7.19270797,4.16145797 7.10416719,4.125 7,4.125 C6.34895508,4.125 5.79036691,4.35807059 5.32421875,4.82421875 C4.85807059,5.29036691 4.625,5.84895508 4.625,6.5 C4.625,6.60416719 4.66145797,6.69270797 4.734375,6.765625 C4.80729203,6.83854203 4.89583281,6.875 5,6.875 C5.10416719,6.875 5.19270797,6.83854203 5.265625,6.765625 C5.33854203,6.69270797 5.375,6.60416719 5.375,6.5 C5.375,6.05208109 5.53385258,5.66927242 5.8515625,5.3515625 C6.16927242,5.03385258 6.55208109,4.875 7,4.875 C7.10416719,4.875 7.19270797,4.83854203 7.265625,4.765625 C7.33854203,4.69270797 7.375,4.60416719 7.375,4.5 L7.375,4.5 Z M14,7.5 C14,7.67708422 13.9479172,7.85676992 13.84375,8.0390625 C13.1145797,9.23698516 12.1341207,10.196611 10.9023438,10.9179688 C9.67056676,11.6393265 8.36979852,12 7,12 C5.63020148,12 4.32943324,11.6380245 3.09765625,10.9140625 C1.86587926,10.1901005 0.885420312,9.2317768 0.15625,8.0390625 C0.0520828125,7.85676992 0,7.67708422 0,7.5 C0,7.32291578 0.0520828125,7.14323008 0.15625,6.9609375 C0.885420312,5.7682232 1.86587926,4.80989945 3.09765625,4.0859375 C4.32943324,3.36197555 5.63020148,3 7,3 C8.36979852,3 9.67056676,3.36197555 10.9023438,4.0859375 C12.1341207,4.80989945 13.1145797,5.7682232 13.84375,6.9609375 C13.9479172,7.14323008 14,7.32291578 14,7.5 L14,7.5 Z" id="icn-view">
  </path>
</svg>
