<?xml version="1.0" encoding="UTF-8" standalone="no"?>
<svg width="20px" height="17px" viewBox="0 0 20 17" version="1.1" xmlns="http://www.w3.org/2000/svg" xmlns:xlink="http://www.w3.org/1999/xlink">
    <!-- Generator: Sketch 39 (31667) - http://www.bohemiancoding.com/sketch -->
    <title></title>
    <desc>Created with Sketch.</desc>
    <defs></defs>
    <g id="Page-1" stroke="none" stroke-width="1" fill="none" fill-rule="evenodd">
        <g id="Mobile-Contact-us" transform="translate(-51.000000, -550.000000)" fill="#FFFFFF">
            <g id="Instagram-button-Copy" transform="translate(19.000000, 533.000000)">
                <path d="M50.5714286,31.6428571 L50.5714286,23.0714286 C50.3333321,23.3392871 50.0766383,23.5848203 49.8013393,23.8080357 C47.8072817,25.3407815 46.2224761,26.5982094 45.046875,27.5803571 C44.6674088,27.9002992 44.3586321,28.1495527 44.1205357,28.328125 C43.8824393,28.5066973 43.5606419,28.6871271 43.1551339,28.8694196 C42.7496259,29.0517122 42.3683054,29.1428571 42.0111607,29.1428571 L42,29.1428571 L41.9888393,29.1428571 C41.6316946,29.1428571 41.2503741,29.0517122 40.8448661,28.8694196 C40.4393581,28.6871271 40.1175607,28.5066973 39.8794643,28.328125 C39.6413679,28.1495527 39.3325912,27.9002992 38.953125,27.5803571 C37.7775239,26.5982094 36.1927183,25.3407815 34.1986607,23.8080357 C33.9233617,23.5848203 33.6666679,23.3392871 33.4285714,23.0714286 L33.4285714,31.6428571 C33.4285714,31.7395838 33.4639133,31.8232883 33.5345982,31.8939732 C33.6052831,31.9646581 33.6889876,32 33.7857143,32 L50.2142857,32 C50.3110124,32 50.3947169,31.9646581 50.4654018,31.8939732 C50.5360867,31.8232883 50.5714286,31.7395838 50.5714286,31.6428571 L50.5714286,31.6428571 Z M50.5714286,19.9129464 L50.5714286,19.7901786 L50.5714286,19.6395089 C50.5714286,19.6060266 50.5695685,19.557664 50.5658482,19.4944196 C50.562128,19.4311753 50.5509674,19.3846728 50.5323661,19.3549107 C50.5137648,19.3251487 50.4933037,19.2916669 50.4709821,19.2544643 C50.4486606,19.2172617 50.4151788,19.1893602 50.3705357,19.1707589 C50.3258926,19.1521576 50.2738098,19.1428571 50.2142857,19.1428571 L33.7857143,19.1428571 C33.6889876,19.1428571 33.6052831,19.1781991 33.5345982,19.2488839 C33.4639133,19.3195688 33.4285714,19.4032733 33.4285714,19.5 C33.4285714,20.7500063 33.975441,21.8065433 35.0691964,22.6696429 C36.5052155,23.8006009 37.9970161,24.9799046 39.5446429,26.2075893 C39.5892859,26.2447919 39.719493,26.3545378 39.9352679,26.5368304 C40.1510427,26.7191229 40.322172,26.8586305 40.4486607,26.9553571 C40.5751494,27.0520838 40.7406984,27.1692701 40.9453125,27.3069196 C41.1499266,27.4445691 41.3377968,27.5468747 41.5089286,27.6138393 C41.6800604,27.6808039 41.840029,27.7142857 41.9888393,27.7142857 L42,27.7142857 L42.0111607,27.7142857 C42.159971,27.7142857 42.3199396,27.6808039 42.4910714,27.6138393 C42.6622032,27.5468747 42.8500734,27.4445691 43.0546875,27.3069196 C43.2593016,27.1692701 43.4248506,27.0520838 43.5513393,26.9553571 C43.677828,26.8586305 43.8489573,26.7191229 44.0647321,26.5368304 C44.280507,26.3545378 44.4107141,26.2447919 44.4553571,26.2075893 C46.0029839,24.9799046 47.4947845,23.8006009 48.9308036,22.6696429 C49.3325913,22.3497008 49.7064715,21.9200176 50.0524554,21.3805804 C50.3984392,20.8411431 50.5714286,20.3519367 50.5714286,19.9129464 L50.5714286,19.9129464 Z M52,19.5 L52,31.6428571 C52,32.133931 51.8251506,32.5543137 51.4754464,32.9040179 C51.1257423,33.253722 50.7053596,33.4285714 50.2142857,33.4285714 L33.7857143,33.4285714 C33.2946404,33.4285714 32.8742577,33.253722 32.5245536,32.9040179 C32.1748494,32.5543137 32,32.133931 32,31.6428571 L32,19.5 C32,19.0089261 32.1748494,18.5885434 32.5245536,18.2388393 C32.8742577,17.8891352 33.2946404,17.7142857 33.7857143,17.7142857 L50.2142857,17.7142857 C50.7053596,17.7142857 51.1257423,17.8891352 51.4754464,18.2388393 C51.8251506,18.5885434 52,19.0089261 52,19.5 L52,19.5 Z" id=""></path>
            </g>
        </g>
    </g>
</svg>