<?xml version="1.0" encoding="UTF-8" standalone="no"?>
<svg width="16px" height="17px" viewBox="0 0 16 17" version="1.1" xmlns="http://www.w3.org/2000/svg" xmlns:xlink="http://www.w3.org/1999/xlink">
    <!-- Generator: Sketch 3.8.3 (29802) - http://www.bohemiancoding.com/sketch -->
    <title>icn-ig</title>
    <desc>Created with Sketch.</desc>
    <defs></defs>
    <g id="Page-1" stroke="none" stroke-width="1" fill="none" fill-rule="evenodd">
        <g id="Landing-page" transform="translate(-740.000000, -3076.000000)" fill="#666666">
            <g id="Footer" transform="translate(-1.000000, 2932.000000)">
                <path d="M754.680804,157.895089 L754.680804,151.386161 L753.324777,151.386161 C753.458706,151.808038 753.52567,152.24665 753.52567,152.702009 C753.52567,153.545763 753.311386,154.324215 752.882812,155.037388 C752.454239,155.750562 751.871655,156.31473 751.135045,156.729911 C750.398434,157.145091 749.59487,157.352679 748.72433,157.352679 C747.405127,157.352679 746.27679,156.899 745.339286,155.991629 C744.401781,155.084259 743.933036,153.98773 743.933036,152.702009 C743.933036,152.24665 743.999999,151.808038 744.133929,151.386161 L742.717634,151.386161 L742.717634,157.895089 C742.717634,158.069197 742.776227,158.214843 742.893415,158.332031 C743.010603,158.449219 743.156249,158.507812 743.330357,158.507812 L754.06808,158.507812 C754.235492,158.507812 754.379464,158.449219 754.5,158.332031 C754.620536,158.214843 754.680804,158.069197 754.680804,157.895089 L754.680804,157.895089 Z M751.828125,152.541295 C751.828125,151.710933 751.525115,151.002793 750.919085,150.416853 C750.313055,149.830912 749.581478,149.537946 748.72433,149.537946 C747.87388,149.537946 747.14565,149.830912 746.539621,150.416853 C745.933591,151.002793 745.63058,151.710933 745.63058,152.541295 C745.63058,153.371656 745.933591,154.079796 746.539621,154.665737 C747.14565,155.251677 747.87388,155.544643 748.72433,155.544643 C749.581478,155.544643 750.313055,155.251677 750.919085,154.665737 C751.525115,154.079796 751.828125,153.371656 751.828125,152.541295 L751.828125,152.541295 Z M754.680804,148.925223 L754.680804,147.267857 C754.680804,147.080356 754.61384,146.917969 754.479911,146.780692 C754.345981,146.643414 754.181921,146.574777 753.987723,146.574777 L752.239955,146.574777 C752.045758,146.574777 751.881697,146.643414 751.747768,146.780692 C751.613839,146.917969 751.546875,147.080356 751.546875,147.267857 L751.546875,148.925223 C751.546875,149.119421 751.613839,149.283481 751.747768,149.417411 C751.881697,149.55134 752.045758,149.618304 752.239955,149.618304 L753.987723,149.618304 C754.181921,149.618304 754.345981,149.55134 754.479911,149.417411 C754.61384,149.283481 754.680804,149.119421 754.680804,148.925223 L754.680804,148.925223 Z M756.428571,146.835937 L756.428571,158.30692 C756.428571,158.849333 756.234377,159.31473 755.845982,159.703125 C755.457587,160.09152 754.99219,160.285714 754.449777,160.285714 L742.978795,160.285714 C742.436381,160.285714 741.970984,160.09152 741.582589,159.703125 C741.194194,159.31473 741,158.849333 741,158.30692 L741,146.835937 C741,146.293524 741.194194,145.828127 741.582589,145.439732 C741.970984,145.051337 742.436381,144.857143 742.978795,144.857143 L754.449777,144.857143 C754.99219,144.857143 755.457587,145.051337 755.845982,145.439732 C756.234377,145.828127 756.428571,146.293524 756.428571,146.835937 L756.428571,146.835937 Z" id="icn-ig"></path>
            </g>
        </g>
    </g>
</svg>